<svg role="img" viewBox="0 0 24 24" xmlns="http://www.w3.org/2000/svg">
  <title>Ansible</title>
  <path fill="#EE0000" d="M10.617 11.473l4.686 3.695-3.102-7.662zM12 0C5.371 0 0 5.371 0 12s5.371 12 12 12 12-5.371 12-12S18.629 0 12 0zm5.797 17.305c-.011.471-.403.842-.875.83-.236-.006-.464-.096-.633-.25l-4.186-3.311c-.423-.334-.49-.949-.156-1.372.334-.423.949-.49 1.372-.156l4.186 3.311c.423.334.49.949.156 1.372-.167.211-.403.33-.653.33-.07 0-.141-.008-.211-.024zm-3.125-5.433c-.011.471-.403.842-.875.83-.236-.006-.464-.096-.633-.25l-4.186-3.311c-.423-.334-.49-.949-.156-1.372.334-.423.949-.49 1.372-.156l4.186 3.311c.423.334.49.949.156 1.372-.167.211-.403.33-.653.33-.07 0-.141-.008-.211-.024z"/>
</svg>
