<svg role="img" viewBox="0 0 24 24" xmlns="http://www.w3.org/2000/svg">
  <title>CircleCI</title>
  <path fill="#343434" d="M8.963 12c0-1.584 1.284-2.867 2.867-2.867 1.584 0 2.867 1.283 2.867 2.867 0 1.584-1.283 2.867-2.867 2.867-1.583 0-2.867-1.283-2.867-2.867zm2.867-12C6.215 0 1.344 4.872 1.344 10.886s4.871 10.886 10.886 10.886c6.015 0 10.886-4.872 10.886-10.886S17.845 0 11.83 0zm0 6.176c-3.22 0-5.824 2.604-5.824 5.824s2.604 5.824 5.824 5.824 5.824-2.604 5.824-5.824-2.604-5.824-5.824-5.824z"/>
</svg>
