<svg role="img" viewBox="0 0 24 24" xmlns="http://www.w3.org/2000/svg">
  <title>Docker</title>
  <path fill="#2496ED" d="M13.983 11.078h2.119a.186.186 0 00.186-.185V9.006a.186.186 0 00-.186-.186h-2.119a.185.185 0 00-.185.185v1.888c0 .102.083.185.185.185m-2.954-5.43h2.118a.186.186 0 00.186-.186V3.574a.186.186 0 00-.186-.185h-2.118a.185.185 0 00-.185.185v1.888c0 .102.082.185.185.185m0 2.716h2.118a.187.187 0 00.186-.186V6.29a.186.186 0 00-.186-.185h-2.118a.185.185 0 00-.185.185v1.887c0 .102.082.185.185.186m-2.93 0h2.12a.186.186 0 00.184-.186V6.29a.185.185 0 00-.185-.185H8.1a.185.185 0 00-.185.185v1.887c0 .102.083.185.185.186m-2.964 0h2.119a.186.186 0 00.185-.186V6.29a.185.185 0 00-.185-.185H5.136a.186.186 0 00-.186.185v1.887c0 .102.084.185.186.186m5.893 2.715h2.118a.186.186 0 00.186-.185V9.006a.186.186 0 00-.186-.186h-2.118a.185.185 0 00-.185.185v1.888c0 .102.082.185.185.185m-2.93 0h2.12a.185.185 0 00.184-.185V9.006a.185.185 0 00-.184-.186h-2.12a.185.185 0 00-.184.185v1.888c0 .102.083.185.185.185m-2.964 0h2.119a.185.185 0 00.185-.185V9.006a.185.185 0 00-.184-.186h-2.12a.186.186 0 00-.186.186v1.887c0 .102.084.185.186.185m-2.92 0h2.12a.185.185 0 00.184-.185V9.006a.185.185 0 00-.184-.186h-2.12a.185.185 0 00-.184.185v1.888c0 .102.082.185.185.185M23.763 9.89c-.065-.051-.672-.51-1.954-.51-.338 0-.676.033-1.01.099-.663-1.998-2.639-2.676-2.639-2.676-.464-.194-.981.24-.981.24s-.194.487-.097 1.306c.094.818.583 1.032.583 1.032.388.426.904.679.904.679.378.213.748.364 1.107.466.159.045.314.081.466.108.05 1.055-.725 1.595-.725 1.595l-.017.016c-.283.283-.283.746 0 1.029.283.283.746.283 1.029 0l.017-.016s.54-.776 1.595-.725c.027.152.063.307.108.466.102.359.253.729.466 1.107 0 0 .253.516.679.904 0 0 .214.489 1.032.583.819.097 1.306-.097 1.306-.097s.434-.517.24-.981c0 0-.678-1.976-2.676-2.639.066-.334.099-.672.099-1.01 0-1.282-.459-1.889-.51-1.954a.747.747 0 00-1.029 0z"/>
</svg>
