<svg role="img" viewBox="0 0 24 24" xmlns="http://www.w3.org/2000/svg">
  <title>Grafana</title>
  <path fill="#F46800" d="M4.845 1.404C2.171 1.404 0 3.575 0 6.249v11.502C0 20.425 2.171 22.596 4.845 22.596h14.31C21.829 22.596 24 20.425 24 17.751V6.249C24 3.575 21.829 1.404 19.155 1.404H4.845zm7.155 2.673c3.314 0 6 2.686 6 6s-2.686 6-6 6-6-2.686-6-6 2.686-6 6-6zm0 1.5c-2.485 0-4.5 2.015-4.5 4.5s2.015 4.5 4.5 4.5 4.5-2.015 4.5-4.5-2.015-4.5-4.5-4.5zm0 1.5c1.657 0 3 1.343 3 3s-1.343 3-3 3-3-1.343-3-3 1.343-3 3-3z"/>
</svg>
