<svg role="img" viewBox="0 0 24 24" xmlns="http://www.w3.org/2000/svg">
  <title>Jenkins</title>
  <path fill="#D33833" d="M11.998.004C5.371.004 0 5.375 0 12.002 0 18.629 5.371 24 11.998 24 18.627 24 24 18.629 24 12.002 24 5.375 18.627.004 11.998.004zm6.541 15.947c-.289.43-.765.688-1.275.688-.83 0-1.504-.674-1.504-1.504 0-.83.674-1.504 1.504-1.504.83 0 1.504.674 1.504 1.504 0 .275-.074.533-.229.816zm-1.275-3.008c-1.66 0-3.008 1.348-3.008 3.008s1.348 3.008 3.008 3.008 3.008-1.348 3.008-3.008-1.348-3.008-3.008-3.008zm-5.266-1.504c-.83 0-1.504-.674-1.504-1.504s.674-1.504 1.504-1.504 1.504.674 1.504 1.504-.674 1.504-1.504 1.504zm0-4.512c-1.66 0-3.008 1.348-3.008 3.008s1.348 3.008 3.008 3.008 3.008-1.348 3.008-3.008-1.348-3.008-3.008-3.008zm-5.266 1.504c-.83 0-1.504-.674-1.504-1.504s.674-1.504 1.504-1.504 1.504.674 1.504 1.504-.674 1.504-1.504 1.504zm0-4.512c-1.66 0-3.008 1.348-3.008 3.008s1.348 3.008 3.008 3.008 3.008-1.348 3.008-3.008-1.348-3.008-3.008-3.008z"/>
</svg>
