<svg role="img" viewBox="0 0 24 24" xmlns="http://www.w3.org/2000/svg">
  <title>Kubernetes</title>
  <path fill="#326CE5" d="M10.204 14.35l.007.01-.999 2.413a5.171 5.171 0 0 1-2.075-2.597l2.578-.437.004.005a.44.44 0 0 1 .485.606zm-.833-2.129a.44.44 0 0 1 .173-.756l.002-.011 2.456-1.051a5.156 5.156 0 0 1 .309 2.98l-2.626.402-.008-.002a.44.44 0 0 1-.306-.562zm.84-2.129l.006-.005a.44.44 0 0 1 .756-.173l.011-.002 1.051-2.456a5.156 5.156 0 0 1 2.98.309l-.402 2.626.002.008a.44.44 0 0 1-.562.306l-.01-.007-2.413-.999a5.171 5.171 0 0 1-2.597 2.075l.437-2.578-.005-.004zm2.129.84a.44.44 0 0 1 .756.173l.011.002 2.456 1.051a5.156 5.156 0 0 1-.309 2.98l-2.626-.402-.008.002a.44.44 0 0 1-.306-.562l.007-.01.999-2.413a5.171 5.171 0 0 1 2.075-2.597l-.578 2.437.004.005a.44.44 0 0 1-.485.606zm2.129-.84l-.005.006a.44.44 0 0 1-.173.756l-.002.011-1.051 2.456a5.156 5.156 0 0 1-2.98-.309l.402-2.626-.002-.008a.44.44 0 0 1 .562-.306l.01.007 2.413.999a5.171 5.171 0 0 1 2.597-2.075l-.437 2.578.005.004a.44.44 0 0 1 .485-.606zm-.84 2.129a.44.44 0 0 1-.756-.173l-.011-.002-2.456-1.051a5.156 5.156 0 0 1 .309-2.98l2.626.402.008-.002a.44.44 0 0 1 .306.562l-.007.01-.999 2.413a5.171 5.171 0 0 1-2.075 2.597l.578-2.437-.004-.005a.44.44 0 0 1 .485-.606z"/>
</svg>
