<svg role="img" viewBox="0 0 24 24" xmlns="http://www.w3.org/2000/svg">
  <title>Redis</title>
  <path fill="#DC382D" d="M10.5 2.661l.54.997-1.797.644-.54-.997L10.5 2.661zm2.077.702l.54.997-1.797.644-.54-.997 1.797-.644zm-4.154 1.488l.54.997L7.166 6.492l-.54-.997 1.797-.644zm2.077.702l.54.997-1.797.644-.54-.997 1.797-.644zm-4.154 1.488l.54.997L5.089 8.682l-.54-.997 1.797-.644zm2.077.702l.54.997-1.797.644-.54-.997 1.797-.644zM24 9.449s-2.077.702-4.154 1.404l-2.077-.702L24 9.449zm-6.231 2.106L24 10.151v2.106l-6.231 1.404v-2.106zm0 2.106L24 12.257v2.106l-6.231 1.404V13.661zm0 2.106L24 14.363v2.106l-6.231 1.404v-2.106zM0 9.449s2.077.702 4.154 1.404l2.077-.702L0 9.449zm6.231 2.106L0 10.151v2.106l6.231 1.404v-2.106zm0 2.106L0 12.257v2.106l6.231 1.404V13.661zm0 2.106L0 14.363v2.106l6.231 1.404v-2.106z"/>
</svg>
