<svg role="img" viewBox="0 0 24 24" xmlns="http://www.w3.org/2000/svg">
  <title>SonarQube</title>
  <path fill="#4E9BCD" d="M15.685.386l-.465.766c3.477 2.112 6.305 5.27 7.966 8.89L24 9.67C22.266 5.887 19.313 2.59 15.685.386zM8.462 1.846l-.305.952c3.035.973 6.009 2.783 8.36 5.096l.657-.753c-2.5-2.463-5.662-4.38-8.712-5.295zm6.492 6.119l-.657.753c1.98 1.726 3.675 3.917 4.897 6.325l.914-.405c-1.297-2.559-3.099-4.887-5.154-6.673zM1.306 6.009l-.914.405c1.297 2.559 3.099 4.887 5.154 6.673l.657-.753c-1.98-1.726-3.675-3.917-4.897-6.325zM12 7.385c-2.573 0-4.615 2.042-4.615 4.615S9.427 16.615 12 16.615s4.615-2.042 4.615-4.615S14.573 7.385 12 7.385zm0 1.846c1.527 0 2.769 1.242 2.769 2.769S13.527 14.769 12 14.769 9.231 13.527 9.231 12 10.473 9.231 12 9.231zM.814 14.33c1.734 3.783 4.687 7.08 8.315 9.284l.465-.766c-3.477-2.112-6.305-5.27-7.966-8.89L.814 14.33zm14.724 1.516l.305.952c-3.035.973-6.009 2.783-8.36 5.096l-.657-.753c2.5-2.463 5.662-4.38 8.712-5.295z"/>
</svg>
