<svg role="img" viewBox="0 0 24 24" xmlns="http://www.w3.org/2000/svg">
  <title>TanStack Query</title>
  <path fill="#FF4154" d="M12 0C5.373 0 0 5.373 0 12s5.373 12 12 12 12-5.373 12-12S18.627 0 12 0zm0 2.4c5.302 0 9.6 4.298 9.6 9.6s-4.298 9.6-9.6 9.6S2.4 17.302 2.4 12 6.698 2.4 12 2.4zm-1.2 3.6v1.2h2.4V6h-2.4zm-2.4 2.4v1.2h2.4V8.4H8.4zm4.8 0v1.2h2.4V8.4h-2.4zm-4.8 2.4v1.2h2.4v-1.2H8.4zm2.4 0v1.2h2.4v-1.2h-2.4zm2.4 0v1.2h2.4v-1.2h-2.4zm-4.8 2.4v1.2h2.4v-1.2H8.4zm2.4 0v1.2h2.4v-1.2h-2.4zm2.4 0v1.2h2.4v-1.2h-2.4zm-2.4 2.4v1.2h2.4V15.6H12z"/>
</svg>